<svg xmlns="http://www.w3.org/2000/svg" xmlns:xlink="http://www.w3.org/1999/xlink" width="447" viewBox="0 0 335.25 81.749997" height="109" preserveAspectRatio="xMidYMid meet"><defs><g></g></defs><path fill="#ff4422" d="M 264.097656 39.710938 C 264.097656 37.230469 264.550781 34.875 265.46875 32.644531 C 266.375 30.417969 267.699219 28.386719 269.449219 26.535156 C 271.148438 24.8125 273.089844 23.488281 275.269531 22.570312 C 277.445312 21.648438 279.738281 21.183594 282.15625 21.183594 C 284.574219 21.183594 286.867188 21.648438 289.046875 22.570312 C 291.226562 23.488281 293.164062 24.8125 294.867188 26.535156 C 296.59375 28.3125 297.902344 30.316406 298.796875 32.558594 C 299.691406 34.800781 300.144531 37.179688 300.144531 39.710938 C 300.144531 42.230469 299.691406 44.597656 298.796875 46.839844 C 297.902344 49.082031 296.59375 51.085938 294.867188 52.863281 C 293.164062 54.613281 291.226562 55.933594 289.046875 56.855469 C 286.867188 57.761719 284.574219 58.214844 282.15625 58.214844 C 279.738281 58.214844 277.445312 57.761719 275.269531 56.855469 C 273.089844 55.9375 271.148438 54.613281 269.449219 52.863281 C 267.699219 51.035156 266.375 49.007812 265.46875 46.765625 C 264.550781 44.523438 264.097656 42.179688 264.097656 39.710938 Z M 267.347656 39.625 C 267.347656 44.007812 268.78125 47.710938 271.652344 50.730469 C 274.511719 53.753906 278.015625 55.265625 282.160156 55.265625 C 286.265625 55.265625 289.753906 53.742188 292.613281 50.707031 C 295.472656 47.671875 296.894531 43.980469 296.894531 39.625 C 296.894531 35.214844 295.472656 31.511719 292.613281 28.5 C 289.753906 25.492188 286.265625 23.980469 282.160156 23.980469 C 278.015625 23.980469 274.511719 25.492188 271.652344 28.515625 C 268.78125 31.539062 267.347656 35.238281 267.347656 39.625 Z M 267.347656 39.625 " fill-opacity="1" fill-rule="nonzero"></path><path fill="#ff4422" d="M 231.292969 55.34375 L 247.441406 55.34375 C 250.265625 55.34375 252.464844 54.792969 254.027344 53.6875 C 255.589844 52.582031 256.382812 51.058594 256.382812 49.097656 C 256.382812 47.234375 255.710938 45.679688 254.355469 44.445312 C 253.015625 43.210938 250.84375 42.195312 247.859375 41.394531 L 240.65625 39.398438 C 237.5 38.527344 235.160156 37.320312 233.648438 35.753906 C 232.136719 34.203125 231.371094 32.242188 231.371094 29.890625 C 231.371094 27.089844 232.382812 24.945312 234.410156 23.433594 C 236.449219 21.933594 239.351562 21.183594 243.125 21.183594 L 256.855469 21.183594 L 256.855469 24.183594 L 241.929688 24.183594 C 239.535156 24.183594 237.722656 24.683594 236.472656 25.683594 C 235.222656 26.679688 234.605469 28.140625 234.605469 30.035156 C 234.605469 31.546875 235.210938 32.835938 236.421875 33.886719 C 237.628906 34.9375 239.535156 35.84375 242.164062 36.582031 L 249.671875 38.699219 C 252.933594 39.605469 255.40625 40.90625 257.089844 42.628906 C 258.773438 44.351562 259.613281 46.429688 259.613281 48.875 C 259.613281 52.109375 258.429688 54.503906 256.050781 56.066406 C 253.671875 57.632812 250.015625 58.421875 245.085938 58.421875 L 231.292969 58.421875 Z M 231.292969 55.34375 " fill-opacity="1" fill-rule="nonzero"></path><path fill="#ff4422" d="M 227.054688 40.152344 C 226.761719 45.441406 224.925781 49.773438 221.550781 53.152344 C 218.175781 56.527344 214.015625 58.214844 209.066406 58.214844 C 206.648438 58.214844 204.355469 57.761719 202.175781 56.851562 C 200 55.933594 198.058594 54.609375 196.359375 52.859375 C 194.605469 51.085938 193.285156 49.082031 192.378906 46.828125 C 191.457031 44.570312 191.003906 42.203125 191.003906 39.710938 C 191.003906 37.207031 191.457031 34.835938 192.367188 32.59375 C 193.285156 30.351562 194.605469 28.339844 196.359375 26.535156 C 198.082031 24.785156 200.035156 23.464844 202.226562 22.542969 C 204.417969 21.636719 206.761719 21.183594 209.28125 21.183594 C 212.503906 21.183594 215.402344 21.941406 217.96875 23.4375 C 220.539062 24.9375 222.707031 27.15625 224.484375 30.117188 L 199.605469 46.714844 L 198.171875 44.320312 L 220.25 29.5625 C 218.902344 27.710938 217.292969 26.3125 215.414062 25.339844 C 213.550781 24.382812 211.484375 23.90625 209.21875 23.90625 C 205.023438 23.90625 201.484375 25.429688 198.597656 28.464844 C 195.703125 31.5 194.253906 35.214844 194.253906 39.625 C 194.253906 44.007812 195.691406 47.699219 198.5625 50.734375 C 201.421875 53.753906 204.921875 55.265625 209.066406 55.265625 C 213.125 55.265625 216.523438 53.867188 219.257812 51.085938 C 221.988281 48.289062 223.515625 44.648438 223.804688 40.152344 Z M 227.054688 40.152344 " fill-opacity="1" fill-rule="nonzero"></path><path fill="#ff4422" d="M 170.632812 21.183594 L 173.808594 21.183594 L 173.808594 26.519531 L 186.742188 26.519531 L 186.742188 29.539062 L 173.808594 29.539062 L 173.808594 45.347656 C 173.808594 48.863281 174.664062 51.445312 176.378906 53.054688 C 178.089844 54.660156 180.816406 55.476562 184.546875 55.476562 L 186.742188 55.476562 L 186.742188 58.421875 L 185.117188 58.421875 C 180.273438 58.421875 176.648438 57.355469 174.246094 55.234375 C 171.839844 53.101562 170.632812 49.902344 170.632812 45.644531 Z M 170.632812 21.183594 " fill-opacity="1" fill-rule="nonzero"></path><path fill="#ff4422" d="M 135.710938 58.421875 L 132.613281 58.421875 L 132.613281 37.738281 C 132.613281 32.667969 133.964844 28.640625 136.664062 25.660156 C 139.359375 22.679688 142.960938 21.183594 147.476562 21.183594 C 151.992188 21.183594 155.589844 22.679688 158.289062 25.660156 C 160.984375 28.640625 162.339844 32.667969 162.339844 37.738281 L 162.339844 58.421875 L 159.242188 58.421875 L 159.242188 36.757812 C 159.242188 32.976562 158.144531 29.90625 155.964844 27.570312 C 153.785156 25.222656 150.960938 24.046875 147.476562 24.046875 C 143.992188 24.046875 141.164062 25.222656 138.984375 27.570312 C 136.804688 29.90625 135.707031 32.976562 135.707031 36.757812 L 135.707031 58.421875 Z M 135.710938 58.421875 " fill-opacity="1" fill-rule="nonzero"></path><path fill="#ff4422" d="M 126.316406 40.152344 C 126.027344 45.441406 124.1875 49.773438 120.8125 53.152344 C 117.4375 56.527344 113.28125 58.214844 108.328125 58.214844 C 105.910156 58.214844 103.621094 57.761719 101.441406 56.851562 C 99.261719 55.933594 97.320312 54.609375 95.621094 52.859375 C 93.871094 51.085938 92.546875 49.082031 91.640625 46.828125 C 90.722656 44.570312 90.265625 42.203125 90.265625 39.710938 C 90.265625 37.207031 90.722656 34.835938 91.628906 32.59375 C 92.546875 30.351562 93.871094 28.339844 95.621094 26.535156 C 97.347656 24.785156 99.296875 23.464844 101.488281 22.542969 C 103.679688 21.636719 106.023438 21.183594 108.542969 21.183594 C 111.769531 21.183594 114.664062 21.941406 117.234375 23.4375 C 119.800781 24.9375 121.96875 27.15625 123.746094 30.117188 L 98.871094 46.714844 L 97.4375 44.320312 L 119.515625 29.558594 C 118.167969 27.707031 116.554688 26.308594 114.679688 25.339844 C 112.816406 24.382812 110.75 23.902344 108.484375 23.902344 C 104.289062 23.902344 100.746094 25.429688 97.863281 28.464844 C 94.96875 31.5 93.519531 35.214844 93.519531 39.625 C 93.519531 44.007812 94.957031 47.695312 97.828125 50.730469 C 100.6875 53.753906 104.1875 55.265625 108.332031 55.265625 C 112.386719 55.265625 115.789062 53.867188 118.523438 51.085938 C 121.253906 48.289062 122.78125 44.648438 123.070312 40.152344 Z M 126.316406 40.152344 " fill-opacity="1" fill-rule="nonzero"></path><path fill="#ff4422" d="M 33.8125 58.421875 L 33.8125 36.035156 C 33.8125 31.425781 35.011719 27.800781 37.425781 25.15625 C 39.835938 22.511719 43.113281 21.183594 47.28125 21.183594 C 49.796875 21.183594 52.027344 21.777344 53.953125 22.964844 C 55.886719 24.136719 57.523438 25.917969 58.890625 28.277344 C 60.324219 25.890625 62 24.109375 63.910156 22.9375 C 65.832031 21.761719 68.039062 21.183594 70.53125 21.183594 C 74.6875 21.183594 77.976562 22.511719 80.398438 25.15625 C 82.839844 27.800781 84.050781 31.425781 84.050781 36.035156 L 84.050781 58.417969 L 80.878906 58.417969 L 80.878906 35.054688 C 80.878906 31.777344 79.925781 29.117188 78.027344 27.09375 C 76.128906 25.066406 73.679688 24.046875 70.6875 24.046875 C 67.628906 24.046875 65.164062 25.066406 63.28125 27.09375 C 61.382812 29.117188 60.441406 31.777344 60.441406 35.054688 L 60.441406 58.421875 L 57.34375 58.421875 L 57.34375 35.054688 C 57.34375 31.777344 56.402344 29.117188 54.507812 27.09375 C 52.609375 25.066406 50.15625 24.046875 47.125 24.046875 C 44.121094 24.046875 41.667969 25.066406 39.757812 27.09375 C 37.863281 29.117188 36.90625 31.777344 36.90625 35.054688 L 36.90625 58.421875 Z M 33.8125 58.421875 " fill-opacity="1" fill-rule="nonzero"></path><path fill="#4b4b4d" d="M 296.363281 4.804688 C 297.589844 4.804688 298.789062 5.121094 299.960938 5.753906 C 301.132812 6.382812 302.046875 7.285156 302.699219 8.460938 C 303.351562 9.636719 303.679688 10.859375 303.679688 12.132812 C 303.679688 13.394531 303.359375 14.613281 302.710938 15.773438 C 302.070312 16.941406 301.167969 17.84375 300.007812 18.488281 C 298.84375 19.132812 297.628906 19.453125 296.363281 19.453125 C 295.09375 19.453125 293.878906 19.132812 292.714844 18.488281 C 291.550781 17.84375 290.648438 16.941406 290 15.773438 C 289.355469 14.613281 289.03125 13.394531 289.03125 12.132812 C 289.03125 10.863281 289.359375 9.636719 290.015625 8.460938 C 290.671875 7.285156 291.589844 6.382812 292.757812 5.753906 C 293.929688 5.121094 295.128906 4.804688 296.363281 4.804688 Z M 296.363281 6.019531 C 295.332031 6.019531 294.328125 6.28125 293.355469 6.808594 C 292.378906 7.335938 291.617188 8.09375 291.066406 9.074219 C 290.519531 10.054688 290.242188 11.074219 290.242188 12.132812 C 290.242188 13.191406 290.515625 14.199219 291.054688 15.167969 C 291.59375 16.136719 292.351562 16.890625 293.320312 17.429688 C 294.292969 17.96875 295.304688 18.242188 296.363281 18.242188 C 297.414062 18.242188 298.429688 17.972656 299.398438 17.429688 C 300.367188 16.890625 301.125 16.136719 301.660156 15.167969 C 302.195312 14.199219 302.464844 13.191406 302.464844 12.132812 C 302.464844 11.074219 302.191406 10.054688 301.644531 9.074219 C 301.097656 8.09375 300.335938 7.335938 299.359375 6.808594 C 298.382812 6.28125 297.382812 6.019531 296.363281 6.019531 Z M 293.144531 16.175781 L 293.144531 8.304688 L 295.855469 8.304688 C 296.78125 8.304688 297.449219 8.375 297.863281 8.523438 C 298.28125 8.667969 298.609375 8.917969 298.859375 9.285156 C 299.105469 9.644531 299.226562 10.027344 299.226562 10.4375 C 299.226562 11.007812 299.019531 11.511719 298.609375 11.9375 C 298.195312 12.363281 297.652344 12.601562 296.96875 12.65625 C 297.246094 12.773438 297.472656 12.910156 297.636719 13.074219 C 297.953125 13.382812 298.339844 13.902344 298.804688 14.632812 L 299.761719 16.171875 L 298.21875 16.171875 L 297.519531 14.933594 C 296.96875 13.957031 296.523438 13.34375 296.183594 13.097656 C 295.949219 12.921875 295.613281 12.832031 295.167969 12.832031 L 294.417969 12.832031 L 294.417969 16.171875 L 293.144531 16.171875 Z M 294.417969 11.742188 L 295.960938 11.742188 C 296.699219 11.742188 297.203125 11.632812 297.46875 11.414062 C 297.738281 11.195312 297.875 10.902344 297.875 10.546875 C 297.875 10.3125 297.808594 10.105469 297.679688 9.921875 C 297.550781 9.738281 297.371094 9.601562 297.140625 9.511719 C 296.910156 9.421875 296.488281 9.375 295.863281 9.375 L 294.414062 9.375 L 294.414062 11.742188 Z M 294.417969 11.742188 " fill-opacity="1" fill-rule="nonzero"></path><g fill="#000000" fill-opacity="1"><g transform="translate(33.301042, 77.20146)"><g><path d="M 4.046875 -5.640625 L 0.25 -11.8125 L 1.609375 -11.8125 L 4.640625 -6.9375 L 7.625 -11.8125 L 8.984375 -11.8125 L 5.234375 -5.640625 L 5.234375 0 L 4.046875 0 Z M 4.046875 -5.640625 "></path></g></g></g><g fill="#000000" fill-opacity="1"><g transform="translate(45.408048, 77.20146)"><g><path d="M 7.15625 0.296875 C 5.96875 0.296875 4.898438 0.0195312 3.953125 -0.53125 C 3.003906 -1.09375 2.257812 -1.847656 1.71875 -2.796875 C 1.1875 -3.742188 0.921875 -4.765625 0.921875 -5.859375 C 0.921875 -7.003906 1.191406 -8.054688 1.734375 -9.015625 C 2.285156 -9.972656 3.03125 -10.726562 3.96875 -11.28125 C 4.90625 -11.832031 5.9375 -12.109375 7.0625 -12.109375 C 8.226562 -12.109375 9.296875 -11.835938 10.265625 -11.296875 C 11.234375 -10.753906 11.992188 -10.007812 12.546875 -9.0625 C 13.097656 -8.113281 13.375 -7.0625 13.375 -5.90625 C 13.375 -4.769531 13.097656 -3.722656 12.546875 -2.765625 C 12.003906 -1.816406 11.257812 -1.066406 10.3125 -0.515625 C 9.363281 0.0234375 8.3125 0.296875 7.15625 0.296875 Z M 7.125 -0.859375 C 8.03125 -0.859375 8.867188 -1.070312 9.640625 -1.5 C 10.410156 -1.9375 11.019531 -2.539062 11.46875 -3.3125 C 11.914062 -4.082031 12.140625 -4.953125 12.140625 -5.921875 C 12.140625 -6.890625 11.90625 -7.753906 11.4375 -8.515625 C 10.976562 -9.285156 10.363281 -9.882812 9.59375 -10.3125 C 8.820312 -10.738281 8 -10.953125 7.125 -10.953125 C 6.257812 -10.953125 5.441406 -10.734375 4.671875 -10.296875 C 3.910156 -9.867188 3.300781 -9.265625 2.84375 -8.484375 C 2.382812 -7.710938 2.15625 -6.835938 2.15625 -5.859375 C 2.15625 -4.910156 2.378906 -4.054688 2.828125 -3.296875 C 3.285156 -2.535156 3.894531 -1.9375 4.65625 -1.5 C 5.414062 -1.070312 6.238281 -0.859375 7.125 -0.859375 Z M 7.125 -0.859375 "></path></g></g></g><g fill="#000000" fill-opacity="1"><g transform="translate(62.581571, 77.20146)"><g><path d="M 5.390625 0.296875 C 4.597656 0.296875 3.90625 0.125 3.3125 -0.21875 C 2.726562 -0.570312 2.273438 -1.082031 1.953125 -1.75 C 1.640625 -2.414062 1.484375 -3.207031 1.484375 -4.125 L 1.484375 -11.8125 L 2.671875 -11.8125 L 2.671875 -3.90625 C 2.671875 -3.3125 2.769531 -2.785156 2.96875 -2.328125 C 3.175781 -1.867188 3.484375 -1.507812 3.890625 -1.25 C 4.304688 -0.988281 4.804688 -0.859375 5.390625 -0.859375 C 5.992188 -0.859375 6.5 -0.988281 6.90625 -1.25 C 7.3125 -1.507812 7.613281 -1.867188 7.8125 -2.328125 C 8.019531 -2.785156 8.125 -3.289062 8.125 -3.84375 L 8.125 -11.8125 L 9.3125 -11.8125 L 9.3125 -4.125 C 9.3125 -3.207031 9.148438 -2.414062 8.828125 -1.75 C 8.515625 -1.082031 8.0625 -0.570312 7.46875 -0.21875 C 6.882812 0.125 6.191406 0.296875 5.390625 0.296875 Z M 5.390625 0.296875 "></path></g></g></g><g fill="#000000" fill-opacity="1"><g transform="translate(76.234856, 77.20146)"><g><path d="M 4.796875 -11.8125 C 6.148438 -11.8125 7.160156 -11.53125 7.828125 -10.96875 C 8.492188 -10.414062 8.828125 -9.648438 8.828125 -8.671875 C 8.828125 -7.972656 8.65625 -7.382812 8.3125 -6.90625 C 7.976562 -6.4375 7.503906 -6.082031 6.890625 -5.84375 C 6.273438 -5.613281 5.554688 -5.5 4.734375 -5.5 L 9 0 L 7.53125 0 L 3.359375 -5.5 L 2.609375 -5.5 L 2.609375 0 L 1.4375 0 L 1.4375 -11.8125 Z M 4.734375 -6.640625 C 5.648438 -6.640625 6.351562 -6.804688 6.84375 -7.140625 C 7.34375 -7.472656 7.59375 -7.984375 7.59375 -8.671875 C 7.59375 -9.273438 7.378906 -9.753906 6.953125 -10.109375 C 6.523438 -10.472656 5.882812 -10.65625 5.03125 -10.65625 L 2.609375 -10.65625 L 2.609375 -6.640625 Z M 4.734375 -6.640625 "></path></g></g></g><g fill="#000000" fill-opacity="1"><g transform="translate(88.851806, 77.20146)"><g></g></g></g><g fill="#000000" fill-opacity="1"><g transform="translate(96.287084, 77.20146)"><g><path d="M 3.984375 0.296875 C 3.191406 0.296875 2.507812 0.0859375 1.9375 -0.328125 C 1.363281 -0.742188 0.851562 -1.367188 0.40625 -2.203125 L 1.421875 -2.8125 C 1.765625 -2.164062 2.144531 -1.675781 2.5625 -1.34375 C 2.976562 -1.019531 3.421875 -0.859375 3.890625 -0.859375 C 4.285156 -0.859375 4.648438 -0.945312 4.984375 -1.125 C 5.328125 -1.3125 5.59375 -1.554688 5.78125 -1.859375 C 5.976562 -2.160156 6.078125 -2.492188 6.078125 -2.859375 C 6.078125 -3.222656 5.972656 -3.5625 5.765625 -3.875 C 5.566406 -4.1875 5.273438 -4.507812 4.890625 -4.84375 C 4.503906 -5.175781 3.832031 -5.726562 2.875 -6.5 C 2.445312 -6.84375 2.113281 -7.144531 1.875 -7.40625 C 1.644531 -7.664062 1.46875 -7.945312 1.34375 -8.25 C 1.226562 -8.550781 1.171875 -8.914062 1.171875 -9.34375 C 1.171875 -9.875 1.296875 -10.347656 1.546875 -10.765625 C 1.796875 -11.191406 2.140625 -11.519531 2.578125 -11.75 C 3.015625 -11.988281 3.5 -12.109375 4.03125 -12.109375 C 4.6875 -12.109375 5.253906 -11.941406 5.734375 -11.609375 C 6.210938 -11.273438 6.675781 -10.800781 7.125 -10.1875 L 6.171875 -9.4375 C 5.921875 -9.769531 5.695312 -10.035156 5.5 -10.234375 C 5.300781 -10.429688 5.078125 -10.585938 4.828125 -10.703125 C 4.578125 -10.828125 4.300781 -10.890625 4 -10.890625 C 3.664062 -10.890625 3.378906 -10.820312 3.140625 -10.6875 C 2.898438 -10.550781 2.71875 -10.367188 2.59375 -10.140625 C 2.46875 -9.910156 2.40625 -9.660156 2.40625 -9.390625 C 2.40625 -9.015625 2.515625 -8.664062 2.734375 -8.34375 C 2.953125 -8.019531 3.269531 -7.707031 3.6875 -7.40625 C 4.5625 -6.769531 5.238281 -6.242188 5.71875 -5.828125 C 6.195312 -5.410156 6.582031 -4.957031 6.875 -4.46875 C 7.164062 -3.988281 7.3125 -3.457031 7.3125 -2.875 C 7.3125 -2.332031 7.164062 -1.816406 6.875 -1.328125 C 6.582031 -0.835938 6.179688 -0.441406 5.671875 -0.140625 C 5.171875 0.148438 4.609375 0.296875 3.984375 0.296875 Z M 3.984375 0.296875 "></path></g></g></g><g fill="#000000" fill-opacity="1"><g transform="translate(107.176807, 77.20146)"><g><path d="M 7.15625 0.296875 C 5.96875 0.296875 4.898438 0.0195312 3.953125 -0.53125 C 3.003906 -1.09375 2.257812 -1.847656 1.71875 -2.796875 C 1.1875 -3.742188 0.921875 -4.765625 0.921875 -5.859375 C 0.921875 -7.003906 1.191406 -8.054688 1.734375 -9.015625 C 2.285156 -9.972656 3.03125 -10.726562 3.96875 -11.28125 C 4.90625 -11.832031 5.9375 -12.109375 7.0625 -12.109375 C 8.226562 -12.109375 9.296875 -11.835938 10.265625 -11.296875 C 11.234375 -10.753906 11.992188 -10.007812 12.546875 -9.0625 C 13.097656 -8.113281 13.375 -7.0625 13.375 -5.90625 C 13.375 -4.769531 13.097656 -3.722656 12.546875 -2.765625 C 12.003906 -1.816406 11.257812 -1.066406 10.3125 -0.515625 C 9.363281 0.0234375 8.3125 0.296875 7.15625 0.296875 Z M 7.125 -0.859375 C 8.03125 -0.859375 8.867188 -1.070312 9.640625 -1.5 C 10.410156 -1.9375 11.019531 -2.539062 11.46875 -3.3125 C 11.914062 -4.082031 12.140625 -4.953125 12.140625 -5.921875 C 12.140625 -6.890625 11.90625 -7.753906 11.4375 -8.515625 C 10.976562 -9.285156 10.363281 -9.882812 9.59375 -10.3125 C 8.820312 -10.738281 8 -10.953125 7.125 -10.953125 C 6.257812 -10.953125 5.441406 -10.734375 4.671875 -10.296875 C 3.910156 -9.867188 3.300781 -9.265625 2.84375 -8.484375 C 2.382812 -7.710938 2.15625 -6.835938 2.15625 -5.859375 C 2.15625 -4.910156 2.378906 -4.054688 2.828125 -3.296875 C 3.285156 -2.535156 3.894531 -1.9375 4.65625 -1.5 C 5.414062 -1.070312 6.238281 -0.859375 7.125 -0.859375 Z M 7.125 -0.859375 "></path></g></g></g><g fill="#000000" fill-opacity="1"><g transform="translate(124.350329, 77.20146)"><g><path d="M 2.609375 -11.8125 L 2.609375 -1.15625 L 7.15625 -1.15625 L 7.15625 0 L 1.4375 0 L 1.4375 -11.8125 Z M 2.609375 -11.8125 "></path></g></g></g><g fill="#000000" fill-opacity="1"><g transform="translate(134.828812, 77.20146)"><g><path d="M 5.390625 0.296875 C 4.597656 0.296875 3.90625 0.125 3.3125 -0.21875 C 2.726562 -0.570312 2.273438 -1.082031 1.953125 -1.75 C 1.640625 -2.414062 1.484375 -3.207031 1.484375 -4.125 L 1.484375 -11.8125 L 2.671875 -11.8125 L 2.671875 -3.90625 C 2.671875 -3.3125 2.769531 -2.785156 2.96875 -2.328125 C 3.175781 -1.867188 3.484375 -1.507812 3.890625 -1.25 C 4.304688 -0.988281 4.804688 -0.859375 5.390625 -0.859375 C 5.992188 -0.859375 6.5 -0.988281 6.90625 -1.25 C 7.3125 -1.507812 7.613281 -1.867188 7.8125 -2.328125 C 8.019531 -2.785156 8.125 -3.289062 8.125 -3.84375 L 8.125 -11.8125 L 9.3125 -11.8125 L 9.3125 -4.125 C 9.3125 -3.207031 9.148438 -2.414062 8.828125 -1.75 C 8.515625 -1.082031 8.0625 -0.570312 7.46875 -0.21875 C 6.882812 0.125 6.191406 0.296875 5.390625 0.296875 Z M 5.390625 0.296875 "></path></g></g></g><g fill="#000000" fill-opacity="1"><g transform="translate(148.4821, 77.20146)"><g><path d="M 2.921875 -10.65625 L 0.265625 -10.65625 L 0.265625 -11.8125 L 6.75 -11.8125 L 6.75 -10.65625 L 4.109375 -10.65625 L 4.109375 0 L 2.921875 0 Z M 2.921875 -10.65625 "></path></g></g></g><g fill="#000000" fill-opacity="1"><g transform="translate(158.368389, 77.20146)"><g><path d="M 1.4375 -11.8125 L 2.609375 -11.8125 L 2.609375 0 L 1.4375 0 Z M 1.4375 -11.8125 "></path></g></g></g><g fill="#000000" fill-opacity="1"><g transform="translate(165.277276, 77.20146)"><g><path d="M 7.15625 0.296875 C 5.96875 0.296875 4.898438 0.0195312 3.953125 -0.53125 C 3.003906 -1.09375 2.257812 -1.847656 1.71875 -2.796875 C 1.1875 -3.742188 0.921875 -4.765625 0.921875 -5.859375 C 0.921875 -7.003906 1.191406 -8.054688 1.734375 -9.015625 C 2.285156 -9.972656 3.03125 -10.726562 3.96875 -11.28125 C 4.90625 -11.832031 5.9375 -12.109375 7.0625 -12.109375 C 8.226562 -12.109375 9.296875 -11.835938 10.265625 -11.296875 C 11.234375 -10.753906 11.992188 -10.007812 12.546875 -9.0625 C 13.097656 -8.113281 13.375 -7.0625 13.375 -5.90625 C 13.375 -4.769531 13.097656 -3.722656 12.546875 -2.765625 C 12.003906 -1.816406 11.257812 -1.066406 10.3125 -0.515625 C 9.363281 0.0234375 8.3125 0.296875 7.15625 0.296875 Z M 7.125 -0.859375 C 8.03125 -0.859375 8.867188 -1.070312 9.640625 -1.5 C 10.410156 -1.9375 11.019531 -2.539062 11.46875 -3.3125 C 11.914062 -4.082031 12.140625 -4.953125 12.140625 -5.921875 C 12.140625 -6.890625 11.90625 -7.753906 11.4375 -8.515625 C 10.976562 -9.285156 10.363281 -9.882812 9.59375 -10.3125 C 8.820312 -10.738281 8 -10.953125 7.125 -10.953125 C 6.257812 -10.953125 5.441406 -10.734375 4.671875 -10.296875 C 3.910156 -9.867188 3.300781 -9.265625 2.84375 -8.484375 C 2.382812 -7.710938 2.15625 -6.835938 2.15625 -5.859375 C 2.15625 -4.910156 2.378906 -4.054688 2.828125 -3.296875 C 3.285156 -2.535156 3.894531 -1.9375 4.65625 -1.5 C 5.414062 -1.070312 6.238281 -0.859375 7.125 -0.859375 Z M 7.125 -0.859375 "></path></g></g></g><g fill="#000000" fill-opacity="1"><g transform="translate(182.450803, 77.20146)"><g><path d="M 9.515625 -11.8125 L 10.6875 -11.8125 L 10.6875 0 L 10.4375 0 L 2.609375 -8.9375 L 2.609375 0 L 1.4375 0 L 1.4375 -11.8125 L 1.671875 -11.8125 L 9.515625 -2.765625 Z M 9.515625 -11.8125 "></path></g></g></g><g fill="#000000" fill-opacity="1"><g transform="translate(197.436525, 77.20146)"><g><path d="M 3.984375 0.296875 C 3.191406 0.296875 2.507812 0.0859375 1.9375 -0.328125 C 1.363281 -0.742188 0.851562 -1.367188 0.40625 -2.203125 L 1.421875 -2.8125 C 1.765625 -2.164062 2.144531 -1.675781 2.5625 -1.34375 C 2.976562 -1.019531 3.421875 -0.859375 3.890625 -0.859375 C 4.285156 -0.859375 4.648438 -0.945312 4.984375 -1.125 C 5.328125 -1.3125 5.59375 -1.554688 5.78125 -1.859375 C 5.976562 -2.160156 6.078125 -2.492188 6.078125 -2.859375 C 6.078125 -3.222656 5.972656 -3.5625 5.765625 -3.875 C 5.566406 -4.1875 5.273438 -4.507812 4.890625 -4.84375 C 4.503906 -5.175781 3.832031 -5.726562 2.875 -6.5 C 2.445312 -6.84375 2.113281 -7.144531 1.875 -7.40625 C 1.644531 -7.664062 1.46875 -7.945312 1.34375 -8.25 C 1.226562 -8.550781 1.171875 -8.914062 1.171875 -9.34375 C 1.171875 -9.875 1.296875 -10.347656 1.546875 -10.765625 C 1.796875 -11.191406 2.140625 -11.519531 2.578125 -11.75 C 3.015625 -11.988281 3.5 -12.109375 4.03125 -12.109375 C 4.6875 -12.109375 5.253906 -11.941406 5.734375 -11.609375 C 6.210938 -11.273438 6.675781 -10.800781 7.125 -10.1875 L 6.171875 -9.4375 C 5.921875 -9.769531 5.695312 -10.035156 5.5 -10.234375 C 5.300781 -10.429688 5.078125 -10.585938 4.828125 -10.703125 C 4.578125 -10.828125 4.300781 -10.890625 4 -10.890625 C 3.664062 -10.890625 3.378906 -10.820312 3.140625 -10.6875 C 2.898438 -10.550781 2.71875 -10.367188 2.59375 -10.140625 C 2.46875 -9.910156 2.40625 -9.660156 2.40625 -9.390625 C 2.40625 -9.015625 2.515625 -8.664062 2.734375 -8.34375 C 2.953125 -8.019531 3.269531 -7.707031 3.6875 -7.40625 C 4.5625 -6.769531 5.238281 -6.242188 5.71875 -5.828125 C 6.195312 -5.410156 6.582031 -4.957031 6.875 -4.46875 C 7.164062 -3.988281 7.3125 -3.457031 7.3125 -2.875 C 7.3125 -2.332031 7.164062 -1.816406 6.875 -1.328125 C 6.582031 -0.835938 6.179688 -0.441406 5.671875 -0.140625 C 5.171875 0.148438 4.609375 0.296875 3.984375 0.296875 Z M 3.984375 0.296875 "></path></g></g></g><g fill="#000000" fill-opacity="1"><g transform="translate(208.326253, 77.20146)"><g></g></g></g><g fill="#000000" fill-opacity="1"><g transform="translate(215.761538, 77.20146)"><g><path d="M 4.625 -11.8125 C 5.925781 -11.8125 6.953125 -11.582031 7.703125 -11.125 C 8.453125 -10.664062 8.828125 -9.847656 8.828125 -8.671875 C 8.828125 -7.472656 8.4375 -6.644531 7.65625 -6.1875 C 6.875 -5.726562 5.832031 -5.5 4.53125 -5.5 L 2.609375 -5.5 L 2.609375 0 L 1.4375 0 L 1.4375 -11.8125 Z M 4.578125 -6.640625 C 5.210938 -6.640625 5.75 -6.695312 6.1875 -6.8125 C 6.625 -6.9375 6.96875 -7.144531 7.21875 -7.4375 C 7.46875 -7.726562 7.59375 -8.140625 7.59375 -8.671875 C 7.59375 -9.421875 7.335938 -9.9375 6.828125 -10.21875 C 6.328125 -10.507812 5.617188 -10.65625 4.703125 -10.65625 L 2.609375 -10.65625 L 2.609375 -6.640625 Z M 4.578125 -6.640625 "></path></g></g></g><g fill="#000000" fill-opacity="1"><g transform="translate(227.967237, 77.20146)"><g><path d="M 10.125 0 L 8.3125 -3.890625 L 3.125 -3.890625 L 1.3125 0 L 0.078125 0 L 5.59375 -11.8125 L 5.875 -11.8125 L 11.359375 0 Z M 3.65625 -5 L 7.78125 -5 L 5.71875 -9.421875 Z M 3.65625 -5 "></path></g></g></g><g fill="#000000" fill-opacity="1"><g transform="translate(242.278504, 77.20146)"><g><path d="M 4.796875 -11.8125 C 6.148438 -11.8125 7.160156 -11.53125 7.828125 -10.96875 C 8.492188 -10.414062 8.828125 -9.648438 8.828125 -8.671875 C 8.828125 -7.972656 8.65625 -7.382812 8.3125 -6.90625 C 7.976562 -6.4375 7.503906 -6.082031 6.890625 -5.84375 C 6.273438 -5.613281 5.554688 -5.5 4.734375 -5.5 L 9 0 L 7.53125 0 L 3.359375 -5.5 L 2.609375 -5.5 L 2.609375 0 L 1.4375 0 L 1.4375 -11.8125 Z M 4.734375 -6.640625 C 5.648438 -6.640625 6.351562 -6.804688 6.84375 -7.140625 C 7.34375 -7.472656 7.59375 -7.984375 7.59375 -8.671875 C 7.59375 -9.273438 7.378906 -9.753906 6.953125 -10.109375 C 6.523438 -10.472656 5.882812 -10.65625 5.03125 -10.65625 L 2.609375 -10.65625 L 2.609375 -6.640625 Z M 4.734375 -6.640625 "></path></g></g></g><g fill="#000000" fill-opacity="1"><g transform="translate(254.89546, 77.20146)"><g><path d="M 2.921875 -10.65625 L 0.265625 -10.65625 L 0.265625 -11.8125 L 6.75 -11.8125 L 6.75 -10.65625 L 4.109375 -10.65625 L 4.109375 0 L 2.921875 0 Z M 2.921875 -10.65625 "></path></g></g></g><g fill="#000000" fill-opacity="1"><g transform="translate(264.781737, 77.20146)"><g><path d="M 9.515625 -11.8125 L 10.6875 -11.8125 L 10.6875 0 L 10.4375 0 L 2.609375 -8.9375 L 2.609375 0 L 1.4375 0 L 1.4375 -11.8125 L 1.671875 -11.8125 L 9.515625 -2.765625 Z M 9.515625 -11.8125 "></path></g></g></g><g fill="#000000" fill-opacity="1"><g transform="translate(279.767448, 77.20146)"><g><path d="M 1.4375 -11.8125 L 8.171875 -11.8125 L 8.171875 -10.671875 L 2.609375 -10.671875 L 2.609375 -6.9375 L 8.171875 -6.9375 L 8.171875 -5.828125 L 2.609375 -5.828125 L 2.609375 -1.15625 L 8.171875 -1.15625 L 8.171875 0 L 1.4375 0 Z M 1.4375 -11.8125 "></path></g></g></g><g fill="#000000" fill-opacity="1"><g transform="translate(291.44675, 77.20146)"><g><path d="M 4.796875 -11.8125 C 6.148438 -11.8125 7.160156 -11.53125 7.828125 -10.96875 C 8.492188 -10.414062 8.828125 -9.648438 8.828125 -8.671875 C 8.828125 -7.972656 8.65625 -7.382812 8.3125 -6.90625 C 7.976562 -6.4375 7.503906 -6.082031 6.890625 -5.84375 C 6.273438 -5.613281 5.554688 -5.5 4.734375 -5.5 L 9 0 L 7.53125 0 L 3.359375 -5.5 L 2.609375 -5.5 L 2.609375 0 L 1.4375 0 L 1.4375 -11.8125 Z M 4.734375 -6.640625 C 5.648438 -6.640625 6.351562 -6.804688 6.84375 -7.140625 C 7.34375 -7.472656 7.59375 -7.984375 7.59375 -8.671875 C 7.59375 -9.273438 7.378906 -9.753906 6.953125 -10.109375 C 6.523438 -10.472656 5.882812 -10.65625 5.03125 -10.65625 L 2.609375 -10.65625 L 2.609375 -6.640625 Z M 4.734375 -6.640625 "></path></g></g></g></svg>